IKResults
version=1
nRows=7
nColumns=63
inDegrees=yes

Units are S.I. units (second, meters, Newtons, ...)
If the header above contains a line with 'inDegrees', this indicates whether rotational values are in degrees (yes) or radians (no).

endheader
time	pelvis_tilt	pelvis_list	pelvis_rotation	pelvis_tx	pelvis_ty	pelvis_tz	hip_flexion_r	hip_adduction_r	hip_rotation_r	knee_angle_r	knee_angle_r_beta	ankle_angle_r	subtalar_angle_r	mtp_angle_r	hip_flexion_l	hip_adduction_l	hip_rotation_l	knee_angle_l	knee_angle_l_beta	ankle_angle_l	subtalar_angle_l	mtp_angle_l	L5_S1_Flex_Ext	L5_S1_Lat_Bending	L5_S1_axial_rotation	L4_L5_Flex_Ext	L4_L5_Lat_Bending	L4_L5_axial_rotation	L3_L4_Flex_Ext	L3_L4_Lat_Bending	L3_L4_axial_rotation	L2_L3_Flex_Ext	L2_L3_Lat_Bending	L2_L3_axial_rotation	L1_L2_Flex_Ext	L1_L2_Lat_Bending	L1_L2_axial_rotation	L1_T12_Flex_Ext	L1_T12_Lat_Bending	L1_T12_axial_rotation	Abs_r3	Abs_r2	Abs_r1	Abs_t1	Abs_t2	neck_flexion	neck_bending	neck_rotation	arm_flex_r	arm_add_r	arm_rot_r	elbow_flex_r	pro_sup_r	wrist_flex_r	wrist_dev_r	arm_flex_l	arm_add_l	arm_rot_l	elbow_flex_l	pro_sup_l	wrist_flex_l	wrist_dev_l
      0.03333333	    -20.79554000	    -33.79620932	   -108.23670546	     -0.62636509	      0.97717847	      0.55878004	    -34.56244043	      5.34503068	    -31.33852474	      0.05114464	      0.00089264	    -30.55926824	    -18.61157477	      0.00000000	    -44.60420528	    -17.35108360	    -31.42261309	     10.70982410	      0.18692169	      8.22353379	    -17.76738941	      0.00000000	     -7.74656683	      2.00098421	      5.65243928	    -14.38614927	      2.66130900	      6.00571674	    -12.72683465	      4.86519300	      6.00571674	     -8.85355123	      4.86519300	      4.94588437	     -7.19346196	      4.08040700	      4.59260692	     -4.42638829	      3.09952454	      4.23932946	    -55.33295224	     22.63553356	     31.43717156	      0.00000000	      0.00000000	     27.88363991	     -3.12655947	     34.71019303	      2.23912224	     19.60561612	     43.86552462	      7.43544991	     89.99559364	      0.00000000	      0.00000000	     17.08003511	     -1.58456464	     13.91877948	     25.52606325	     89.99559364	      0.00000000	      0.00000000
      0.06666667	    -20.83963019	    -33.81791567	   -108.15486927	     -0.62622565	      0.97743544	      0.55851135	    -34.64667779	      5.52093791	    -31.06883208	      0.05183762	      0.00090474	    -30.27114613	    -18.52696735	      0.00000000	    -44.58847427	    -17.45688273	    -31.30923241	     10.72028391	      0.18710425	      8.14229971	    -17.66076183	      0.00000000	     -7.75298582	      2.00920882	      5.63909706	    -14.39806996	      2.67224773	      5.99154063	    -12.73738040	      4.88519033	      5.99154063	     -8.86088749	      4.88519033	      4.93420993	     -7.19942263	      4.09717863	      4.58176636	     -4.43005610	      3.11226446	      4.22932279	    -55.37880240	     22.72857201	     31.36296611	      0.00000000	      0.00000000	     27.90694744	     -3.09620300	     34.70895257	      2.28341831	     19.57964855	     43.86144428	      7.44164613	     89.99559364	      0.00000000	      0.00000000	     17.12021045	     -1.52896484	     13.92806313	     25.52868978	     89.99559364	      0.00000000	      0.00000000
      0.10000000	    -21.05368805	    -33.89180546	   -108.01365313	     -0.62589586	      0.97788826	      0.55813371	    -34.88008202	      5.96841111	    -30.51724438	      0.05338674	      0.00093177	    -29.79952535	    -18.49467211	      0.00000000	    -44.63699853	    -17.77056434	    -30.93586113	     10.76651816	      0.18791119	      8.04407298	    -17.52806029	      0.00000000	     -7.76790702	      2.03936810	      5.61198291	    -14.42578013	      2.71235958	      5.96273184	    -12.76189445	      4.95851961	      5.96273184	     -8.87794094	      4.95851961	      4.91048504	     -7.21327846	      4.15867944	      4.55973611	     -4.43858207	      3.15898119	      4.20898718	    -55.48538308	     23.06973988	     31.21216533	      0.00000000	      0.00000000	     27.93744297	     -3.02500214	     34.72976607	      2.33388088	     19.54426130	     43.85654933	      7.43232371	     89.99559364	      0.00000000	      0.00000000	     17.15207710	     -1.44018496	     13.97155449	     25.50125383	     89.99559364	      0.00000000	      0.00000000
      0.13333333	    -21.51854421	    -33.95593443	   -107.84637758	     -0.62515801	      0.97835542	      0.55780949	    -35.18936047	      6.71014291	    -29.78030411	      0.05501192	      0.00096014	    -29.37150155	    -18.55908639	      0.00000000	    -44.69404624	    -18.37571203	    -30.31180646	     10.95462100	      0.19119420	      8.08451480	    -17.58813040	      0.00000000	     -7.77487738	      2.10188132	      5.57767790	    -14.43872478	      2.79550216	      5.92628277	    -12.77334604	      5.11051424	      5.92628277	     -8.88590735	      5.11051424	      4.88046817	     -7.21975113	      4.28615639	      4.53186330	     -4.44256493	      3.25581417	      4.18325843	    -55.53517162	     23.77690187	     31.02137120	      0.00000000	      0.00000000	     27.93246462	     -2.91381887	     34.82275574	      2.33050210	     19.42373295	     43.85185680	      7.39862244	     89.99559364	      0.00000000	      0.00000000	     17.17348584	     -1.23724659	     14.13300866	     25.47547090	     89.99559364	      0.00000000	      0.00000000
      0.16666667	    -21.89816694	    -33.84669057	   -107.60409938	     -0.62464057	      0.97867475	      0.55741040	    -35.29389569	      7.47795377	    -29.02986102	      0.05708299	      0.00099629	    -28.85567071	    -18.59661919	      0.00000000	    -44.42460839	    -19.05546569	    -29.58992535	     11.35366395	      0.19815882	      8.04673524	    -17.82326012	      0.00000000	     -7.75604316	      2.15888592	      5.54428486	    -14.40374775	      2.87131827	      5.89080266	    -12.74240331	      5.24911522	      5.89080266	     -8.86438173	      5.24911522	      4.85124925	     -7.20226168	      4.40240016	      4.50473145	     -4.43180306	      3.34411428	      4.15821365	    -55.40064069	     24.42174927	     30.83564911	      0.00000000	      0.00000000	     27.92638245	     -2.83057231	     35.01601259	      2.35453847	     19.30843069	     43.84553024	      7.42803051	     89.99559364	      0.00000000	      0.00000000	     17.18289739	     -1.13438905	     14.53739484	     25.50669435	     89.99559364	      0.00000000	      0.00000000
      0.20000000	    -22.12410577	    -33.80268476	   -107.23943585	     -0.62428362	      0.97893389	      0.55715039	    -35.41137669	      8.12789684	    -28.54142066	      0.05902330	      0.00103015	    -28.33140506	    -18.56474920	      0.00000000	    -44.16156920	    -19.64202814	    -28.73071220	     11.69557018	      0.20412621	      8.05868680	    -17.99218678	      0.00000000	     -7.73917566	      2.19701387	      5.48058672	    -14.37242312	      2.92202845	      5.82312340	    -12.71469169	      5.34181953	      5.82312340	     -8.84510386	      5.34181953	      4.79551338	     -7.18659852	      4.48015069	      4.45297671	     -4.42216497	      3.40317449	      4.11044004	    -55.28015783	     24.85306033	     30.48137919	      0.00000000	      0.00000000	     27.91815941	     -2.53772511	     35.08478764	      2.33648643	     19.30562602	     43.84663917	      7.43315575	     89.99559364	      0.00000000	      0.00000000	     17.24138546	     -1.25155266	     15.57670726	     25.56972530	     89.99559364	      0.00000000	      0.00000000
      0.23333333	    -22.27584546	    -33.85231913	   -107.15411007	     -0.62432665	      0.97931790	      0.55686724	    -35.58907239	      8.47188992	    -28.10005211	      0.06097465	      0.00106421	    -27.84652244	    -18.41122485	      0.00000000	    -44.20216926	    -19.87029132	    -28.53184662	     11.71177240	      0.20440899	      7.88930069	    -17.82813650	      0.00000000	     -7.74520312	      2.20919207	      5.45795956	    -14.38361672	      2.93822545	      5.79908203	    -12.72459421	      5.37142959	      5.79908203	     -8.85199265	      5.37142959	      4.77571462	     -7.19219562	      4.50498446	      4.43459214	     -4.42560906	      3.42203851	      4.09346967	    -55.32321139	     24.99082251	     30.35553369	      0.00000000	      0.00000000	     27.91733216	     -2.33793479	     35.00114259	      2.38011368	     19.32279204	     43.84437740	      7.44730594	     89.99559364	      0.00000000	      0.00000000	     17.25901159	     -1.24960900	     15.64567466	     25.59292611	     89.99559364	      0.00000000	      0.00000000
